<?xml version="1.0" standalone="no"?>
<!DOCTYPE svg PUBLIC "-//W3C//DTD SVG 20010904//EN"
 "http://www.w3.org/TR/2001/REC-SVG-20010904/DTD/svg10.dtd">
<svg version="1.0" xmlns="http://www.w3.org/2000/svg"
 width="157.000000pt" height="29.000000pt" viewBox="0 0 157.000000 29.000000"
 preserveAspectRatio="xMidYMid meet">

<g transform="translate(0.000000,29.000000) scale(0.100000,-0.100000)"
fill="#000000" stroke="none">
<path d="M80 205 l-24 -26 27 -26 c30 -30 50 -24 22 7 -17 19 -17 21 -2 38 35
38 12 45 -23 7z"/>
<path d="M181 200 c-34 -28 -35 -50 -2 -50 10 0 24 6 31 14 6 8 20 16 30 18
18 3 18 4 -4 25 l-22 22 -33 -29z"/>
<path d="M1220 180 c-8 -5 -13 -24 -12 -51 3 -68 19 -70 23 -4 2 22 7 43 12
46 15 10 -7 19 -23 9z"/>
<path d="M468 155 c-18 -41 3 -75 47 -75 29 0 37 5 45 25 6 16 6 34 0 50 -8
20 -16 25 -45 25 -28 0 -38 -5 -47 -25z m76 -7 c14 -23 -3 -52 -32 -56 -23 -4
-37 26 -27 59 8 24 43 23 59 -3z"/>
<path d="M591 132 l-1 -53 33 3 c28 3 32 6 32 33 0 25 -4 31 -27 33 -15 2 -29
11 -31 20 -3 9 -5 -7 -6 -36z m57 -15 c4 -20 -25 -34 -39 -20 -14 14 1 45 20
41 9 -2 17 -11 19 -21z"/>
<path d="M735 170 c3 -5 8 -10 11 -10 2 0 4 5 4 10 0 6 -5 10 -11 10 -5 0 -7
-4 -4 -10z"/>
<path d="M899 160 c-4 -62 -3 -80 4 -80 4 0 7 9 7 19 0 14 8 21 28 23 21 2 28
9 30 31 3 25 1 27 -32 27 -29 0 -36 -4 -37 -20z m56 -10 c0 -8 -10 -16 -22
-18 -18 -3 -23 2 -23 18 0 16 5 21 23 18 12 -2 22 -10 22 -18z"/>
<path d="M1158 168 c-3 -7 -3 -30 0 -50 3 -27 9 -38 21 -37 10 0 11 2 4 6 -15
5 -18 50 -4 55 5 2 4 11 -4 21 -9 13 -14 14 -17 5z"/>
<path d="M1350 130 c0 -27 5 -50 10 -50 6 0 10 23 10 50 0 28 -4 50 -10 50 -5
0 -10 -22 -10 -50z"/>
<path d="M224 155 c-17 -13 -14 -14 41 -14 55 0 58 1 41 14 -11 8 -29 15 -41
15 -12 0 -30 -7 -41 -15z"/>
<path d="M350 149 c0 -8 6 -21 12 -27 10 -10 10 -17 0 -33 -20 -31 -5 -36 24
-8 l24 25 -30 29 c-20 19 -30 24 -30 14z"/>
<path d="M680 115 c0 -19 5 -35 10 -35 6 0 10 16 10 35 0 19 -4 35 -10 35 -5
0 -10 -16 -10 -35z"/>
<path d="M770 135 c0 -9 12 -20 27 -26 21 -8 24 -12 13 -19 -9 -5 -19 -5 -27
2 -9 7 -13 7 -13 0 0 -13 20 -20 43 -14 25 7 21 31 -9 42 -14 6 -22 14 -19 20
3 5 1 10 -4 10 -6 0 -11 -7 -11 -15z"/>
<path d="M805 140 c3 -5 11 -10 16 -10 6 0 7 5 4 10 -3 6 -11 10 -16 10 -6 0
-7 -4 -4 -10z"/>
<path d="M997 144 c-14 -14 -7 -53 12 -63 26 -14 54 8 49 40 -2 17 -10 25 -28
27 -14 2 -29 0 -33 -4z m51 -27 c4 -20 -25 -34 -40 -19 -15 15 -1 44 19 40 10
-2 19 -11 21 -21z"/>
<path d="M1080 115 c0 -19 5 -35 10 -35 6 0 10 11 10 25 0 13 8 29 18 34 14 9
13 10 -10 11 -25 0 -28 -3 -28 -35z"/>
<path d="M1261 136 c-7 -8 -10 -24 -6 -36 5 -17 13 -20 38 -18 28 3 32 7 32
33 0 25 -4 31 -26 33 -14 2 -31 -4 -38 -12z m52 -8 c7 -21 -4 -38 -24 -38 -14
0 -19 7 -19 25 0 18 5 25 19 25 11 0 21 -6 24 -12z"/>
<path d="M1390 115 c0 -19 5 -35 10 -35 6 0 10 16 10 35 0 19 -4 35 -10 35 -5
0 -10 -16 -10 -35z"/>
<path d="M1434 126 c-8 -33 2 -46 36 -46 30 0 44 21 35 51 -4 13 -16 19 -35
19 -23 0 -31 -6 -36 -24z m56 -11 c0 -18 -5 -25 -20 -25 -15 0 -20 7 -20 25 0
18 5 25 20 25 15 0 20 -7 20 -25z"/>
<path d="M170 130 c0 -5 7 -10 16 -10 8 0 12 5 9 10 -3 6 -10 10 -16 10 -5 0
-9 -4 -9 -10z"/>
<path d="M233 119 c9 -5 17 -18 18 -27 1 -11 4 -8 9 8 l8 25 2 -25 c1 -25 1
-25 10 -2 5 12 12 22 15 22 4 0 3 -10 0 -22 -5 -18 -4 -20 4 -8 21 30 12 40
-36 40 -38 -1 -44 -3 -30 -11z"/>
<path d="M178 103 c12 -2 30 -2 40 0 9 3 -1 5 -23 4 -22 0 -30 -2 -17 -4z"/>
<path d="M165 80 c3 -5 19 -10 36 -10 16 0 29 5 29 10 0 6 -16 10 -36 10 -21
0 -33 -4 -29 -10z"/>
</g>
</svg>
